<mxfile host="app.diagrams.net" modified="2023-10-25T18:46:10.163Z" agent="Mozilla/5.0 (X11; Linux x86_64) AppleWebKit/537.36 (KHTML, like Gecko) Chrome/118.0.0.0 Safari/537.36" version="22.0.8" etag="udqy0zEJhoXKC9emvrUL" type="github">
  <diagram name="Page-1" id="JzmhmeX2N8jnh_ITn5JB">
    <mxGraphModel>
      <root>
        <mxCell id="0" />
        <mxCell id="1" parent="0" />
      </root>
    </mxGraphModel>
  </diagram>
</mxfile>
